<svg xmlns="http://www.w3.org/2000/svg" viewBox="0 0 32 32" width="32" height="32">
  <defs>
    <linearGradient id="scg" x1="0" y1="0" x2="0" y2="1">
      <stop offset="0" stop-color="#3EE07E"/>
      <stop offset="1" stop-color="#12A150"/>
    </linearGradient>
  </defs>
  <rect x="1" y="1" width="30" height="30" rx="7" fill="#ffffff" stroke="#e5e7eb"/>
  <g transform="translate(4 4)">
    <path d="M7 4 H17 A4 4 0 0 1 21 8 V12 A4 4 0 0 1 17 16 H9 L5 20.5 L7 16 A4 4 0 0 1 3 12 V8 A4 4 0 0 1 7 4 Z"
      fill="none" stroke="url(#scg)" stroke-width="2" stroke-linecap="round" stroke-linejoin="round"/>
    <g fill="url(#scg)">
      <circle cx="8.5" cy="10" r="1.4"/>
      <circle cx="12" cy="10" r="1.4"/>
      <circle cx="15.5" cy="10" r="1.4"/>
    </g>
  </g>
</svg>
